<svg version="1.1" id="Layer_1" xmlns="http://www.w3.org/2000/svg" xmlns:xlink="http://www.w3.org/1999/xlink" x="0px" y="0px"
	 width="100%" viewBox="0 0 1920 544" enable-background="new 0 0 1920 544" xml:space="preserve">
<path fill="#FEFEFE" opacity="1.000000" stroke="none" 
	d="
M1239.000000,545.000000 
	C826.000000,545.000000 413.500000,545.000000 1.000000,545.000000 
	C1.000000,363.666656 1.000000,182.333328 1.000000,1.000000 
	C641.000000,1.000000 1281.000000,1.000000 1921.000000,1.000000 
	C1921.000000,182.333328 1921.000000,363.666656 1921.000000,545.000000 
	C1693.833374,545.000000 1466.666626,545.000000 1239.000000,545.000000 
M522.310303,144.049957 
	C521.886353,144.703690 521.462402,145.357422 520.476501,146.302307 
	C519.891357,147.155640 519.306213,148.008987 518.115051,149.092392 
	C514.760132,153.399704 511.405212,157.707016 507.441498,162.297623 
	C507.110352,162.670624 506.764648,163.031784 506.450134,163.418320 
	C437.708527,247.887878 368.976379,332.365112 300.216431,416.819702 
	C294.541077,423.790466 288.847260,430.760071 282.851044,437.451569 
	C277.690002,443.210968 273.257263,443.088135 268.242157,437.154480 
	C265.361389,433.746094 262.675995,430.036896 260.621979,426.088837 
	C251.484909,408.526276 242.339539,390.957520 233.759247,373.120605 
	C229.962753,365.228302 226.607452,356.903900 224.612442,348.409119 
	C219.952621,328.567596 237.828796,312.388000 257.495270,318.059845 
	C265.090790,320.250427 269.938324,325.823669 273.398499,332.360321 
	C278.135376,341.308838 281.978882,350.725464 286.497742,359.795776 
	C290.049652,366.925201 294.974304,369.726807 301.065491,368.785217 
	C306.966095,367.873077 312.070679,363.269318 312.786407,356.183258 
	C313.582306,348.304016 313.670746,340.207367 312.837433,332.335510 
	C309.656769,302.289490 292.415588,282.361328 263.753021,274.162689 
	C248.360260,269.759766 232.861420,269.608490 217.244675,271.942841 
	C182.466278,277.141388 156.815735,304.252625 155.025223,339.227417 
	C154.083282,357.626373 155.449707,376.143005 155.754761,394.606812 
	C155.806625,397.745911 155.762070,400.886597 155.762070,404.026520 
	C153.352676,402.681519 151.958832,401.246368 150.930389,399.585052 
	C143.599152,387.742096 136.342468,375.852966 129.005051,363.281128 
	C128.435837,362.302582 127.866623,361.324005 127.295067,359.664368 
	C126.461250,357.776276 125.627434,355.888184 124.806274,353.346741 
	C124.333916,352.637299 123.861557,351.927887 123.610718,350.620697 
	C123.308105,350.082794 123.005501,349.544861 122.731743,348.329010 
	C122.254105,347.333832 121.776466,346.338654 121.396584,344.828613 
	C121.198692,344.553558 121.000809,344.278534 120.840446,343.233429 
	C116.822342,329.770142 112.451607,316.524994 110.831154,302.327148 
	C107.191566,270.438354 108.805573,239.182358 118.616196,208.533585 
	C133.758560,161.228271 161.938843,123.470985 202.928711,95.572006 
	C236.165436,72.950058 272.983337,60.870594 313.374786,59.334084 
	C353.333618,57.814026 390.688873,66.435654 425.581757,85.831078 
	C441.957886,94.933853 456.826416,106.083000 470.156097,119.281685 
	C474.707001,123.787910 479.501587,124.340080 484.027008,121.199379 
	C490.259247,116.874092 490.649963,109.965195 484.706970,104.353569 
	C446.852661,68.610100 402.232727,46.636429 350.501343,40.317913 
	C294.371368,33.462147 241.537857,44.573551 194.853012,76.536644 
	C118.887657,128.546829 83.074295,201.283142 89.529129,293.642273 
	C90.558067,308.364899 94.566948,322.901489 97.547905,337.452423 
	C98.494263,342.071869 100.575485,346.458862 102.256790,351.863892 
	C102.500984,352.424042 102.745171,352.984192 102.960190,353.346008 
	C102.960190,353.346008 103.032951,353.472961 103.248070,354.402069 
	C103.407661,354.676971 103.567253,354.951904 103.525375,355.516327 
	C103.697319,355.748047 103.869263,355.979767 104.208031,357.008698 
	C105.391075,359.740448 106.574127,362.472168 107.571564,365.441315 
	C107.642487,365.687042 107.800682,365.773193 108.141800,366.441162 
	C109.536652,369.315491 110.931511,372.189850 112.230309,375.539703 
	C112.523697,375.876831 112.817085,376.213928 113.444138,377.530182 
	C113.615509,377.829407 113.786873,378.128632 113.809380,378.293671 
	C113.809380,378.293671 113.949684,378.460052 114.147301,379.178345 
	C114.872131,380.469482 115.596962,381.760620 116.274597,383.523346 
	C116.383057,383.861633 116.612915,384.057312 117.056755,384.812683 
	C133.509155,415.581757 156.068054,441.127930 184.343231,461.359802 
	C241.755508,502.440369 305.178772,515.367920 374.184082,500.295990 
	C415.497528,491.272430 451.352356,471.909760 482.554596,442.582397 
	C484.623657,440.364624 486.692749,438.146851 489.306244,435.730225 
	C489.516296,435.417480 489.726349,435.104736 490.551086,434.629303 
	C491.918640,433.049774 493.286224,431.470276 494.904755,429.883911 
	C494.904755,429.883911 494.887024,429.633484 495.467194,429.438263 
	C496.307343,428.290680 497.147491,427.143097 498.000000,426.000000 
	C498.000000,426.000000 497.995361,425.987823 498.637207,425.816772 
	C531.782837,387.347290 550.625427,342.800995 554.832031,292.219604 
	C557.638855,258.468933 553.927185,225.473190 541.650391,193.136322 
	C541.390564,192.909546 541.130676,192.682770 540.444397,191.800827 
	C539.364197,188.836227 538.284058,185.871628 537.215454,182.243881 
	C537.084778,181.830185 536.954041,181.416489 536.866821,180.427383 
	C536.521912,179.972931 536.177063,179.518478 535.881714,178.181915 
	C535.888184,177.009552 535.894714,175.837173 536.506897,174.455399 
	C539.685120,170.312836 542.863342,166.170258 545.998047,162.002518 
	C545.998047,162.002518 546.030151,162.041794 546.627441,161.787231 
	C547.392761,160.514725 548.158081,159.242203 548.995850,157.974777 
	C548.995850,157.974777 548.960327,157.911453 549.565857,157.608765 
	C550.130310,156.381516 550.694763,155.154251 551.640930,153.733734 
	C551.640930,153.733734 551.690430,153.308807 552.183350,152.845352 
	C554.797485,144.429642 552.125305,137.009277 545.270874,133.650238 
	C538.533936,130.348770 530.862976,132.869171 525.504822,140.177383 
	C525.340576,140.465164 525.176270,140.752960 524.443237,141.297134 
	C523.898621,142.157272 523.354004,143.017410 522.912109,143.908310 
	C522.912109,143.908310 522.865906,143.811539 522.310303,144.049957 
M1796.699951,379.784760 
	C1805.628296,374.076263 1815.030273,368.971344 1823.327881,362.459106 
	C1829.442871,357.659821 1834.115234,351.022278 1840.076660,345.005341 
	C1844.978394,338.053162 1850.435669,331.421600 1854.670410,324.084381 
	C1864.610596,306.861237 1870.170288,288.174438 1871.430786,268.263580 
	C1872.894043,245.147324 1870.303711,222.729324 1860.212891,201.551163 
	C1841.888184,163.092926 1811.898926,138.673813 1770.862793,127.935860 
	C1750.433350,122.590050 1729.559326,122.555290 1708.879272,126.108681 
	C1659.306885,134.626511 1625.350586,163.250259 1606.388062,209.224121 
	C1595.088379,236.619873 1594.440430,265.193054 1601.645996,294.043762 
	C1611.150391,332.099213 1633.198242,360.358276 1667.752075,378.411011 
	C1694.351440,392.308014 1723.063232,395.731110 1752.704712,392.334045 
	C1767.849854,390.598328 1782.485718,387.143005 1796.699951,379.784760 
M948.761169,384.743927 
	C963.063904,390.234406 977.909241,392.911896 993.195801,393.037109 
	C1021.008545,393.264954 1046.756958,386.756744 1068.332520,368.322693 
	C1091.581421,348.459045 1101.847900,322.323792 1102.089966,292.353088 
	C1102.510010,240.365280 1102.208984,188.371643 1102.210327,136.380447 
	C1102.210449,134.908630 1102.210327,133.436798 1102.210327,131.689590 
	C1088.052734,131.689590 1074.340820,131.689590 1060.199219,131.689590 
	C1060.199219,136.051819 1060.202148,140.022614 1060.198853,143.993408 
	C1060.160400,190.985458 1060.049072,237.977646 1060.127686,284.969482 
	C1060.149658,298.158447 1058.699341,311.035675 1052.116089,322.639008 
	C1038.703979,346.278229 1017.212708,354.815460 991.171021,353.757568 
	C970.981201,352.937408 953.948303,345.323334 941.925537,328.506989 
	C934.003967,317.427032 931.009521,304.724091 931.000671,291.253326 
	C930.966797,239.762085 930.912964,188.270721 931.038940,136.779816 
	C931.049744,132.378220 929.821655,131.033646 925.393372,131.176666 
	C914.905273,131.515442 904.400085,131.310211 893.902161,131.371506 
	C892.142395,131.381775 890.383972,131.625763 888.377869,131.780869 
	C888.377869,134.161026 888.377686,135.981873 888.377869,137.802734 
	C888.382996,181.795303 888.335266,225.787964 888.429932,269.780334 
	C888.453918,280.930847 888.251160,292.146210 889.323608,303.218353 
	C893.042114,341.608978 912.289612,369.070221 948.761169,384.743927 
M696.892212,351.500000 
	C696.892212,335.076660 696.892212,318.653351 696.892212,301.736206 
	C709.071960,301.736206 720.548523,302.028412 732.004089,301.663208 
	C746.794739,301.191742 761.720703,301.256134 776.312805,299.165741 
	C796.330627,296.298096 814.382996,288.045929 828.390381,272.891846 
	C843.818237,256.201080 849.366211,235.818756 848.801086,213.549973 
	C848.269836,192.613373 841.667175,173.909744 826.558350,159.006973 
	C807.918884,140.621841 784.554626,132.750793 759.035461,132.081009 
	C725.559875,131.202377 692.049683,131.638901 658.554321,131.534866 
	C657.266968,131.530869 655.978760,131.787796 654.201843,131.974548 
	C654.201843,133.845734 654.201416,135.470520 654.201904,137.095306 
	C654.208557,159.261200 654.215088,181.427094 654.222229,203.592987 
	C654.241333,262.924225 654.338806,322.255707 654.146423,381.586273 
	C654.129211,386.892365 655.743286,387.969940 660.632935,387.790222 
	C670.785461,387.417175 680.961243,387.692169 691.127502,387.670319 
	C692.899597,387.666504 694.671448,387.513885 696.894897,387.408600 
	C696.894897,375.440125 696.894897,363.970062 696.892212,351.500000 
M1429.410156,348.258575 
	C1411.742676,342.645966 1396.290039,333.126709 1382.082153,320.839813 
	C1374.164307,331.430176 1366.527344,341.644867 1358.713013,352.096832 
	C1360.001587,353.457336 1360.993408,354.813110 1362.270386,355.799744 
	C1368.184570,360.369537 1373.894775,365.284241 1380.189941,369.265869 
	C1413.018677,390.029388 1448.845947,396.501831 1486.861816,389.801422 
	C1516.039429,384.658813 1539.104370,370.551727 1548.787598,340.819641 
	C1558.718872,310.325684 1552.034668,270.773438 1514.283203,253.182724 
	C1499.052368,246.085831 1482.228882,242.372299 1466.067749,237.318146 
	C1453.391113,233.353668 1440.428955,230.220825 1427.953369,225.721405 
	C1419.285645,222.595352 1412.547729,216.529877 1409.836426,207.064896 
	C1404.834229,189.603226 1414.743530,172.391495 1433.517944,167.032379 
	C1454.979858,160.906189 1475.810791,164.238373 1495.791016,173.165497 
	C1504.971558,177.267365 1513.612549,182.576889 1523.023804,187.620544 
	C1530.136475,177.285370 1537.517822,166.559891 1544.954102,155.754456 
	C1543.752686,154.697556 1543.054688,153.986801 1542.263794,153.401779 
	C1505.432495,126.159897 1464.501099,118.648911 1420.645142,130.360504 
	C1387.181396,139.296906 1366.577881,166.928589 1365.880859,200.710205 
	C1365.302612,228.728012 1376.908203,249.966003 1403.016846,261.208679 
	C1416.662231,267.084564 1431.264893,270.887238 1445.645752,274.864441 
	C1460.842285,279.067169 1476.375366,281.947937 1490.637085,289.206421 
	C1517.408447,302.831543 1513.541748,332.374542 1496.470337,343.819366 
	C1490.559448,347.782074 1483.430176,350.651306 1476.455200,352.155792 
	C1460.828491,355.526428 1445.322266,353.179047 1429.410156,348.258575 
M1212.513672,349.111908 
	C1208.726929,349.111908 1204.940063,349.111908 1200.873169,349.111908 
	C1200.750610,347.106384 1200.584839,345.653992 1200.584473,344.201538 
	C1200.572876,307.710968 1200.587280,271.220398 1200.579224,234.729843 
	C1200.571899,201.904999 1200.541992,169.080154 1200.527832,136.255310 
	C1200.526733,133.779541 1201.141357,131.189575 1197.054688,131.255035 
	C1184.894287,131.449814 1172.729980,131.387909 1160.567627,131.478745 
	C1159.822388,131.484299 1159.080688,131.944534 1158.492920,132.141159 
	C1158.492920,217.341553 1158.492920,302.240509 1158.492920,387.285614 
	C1216.896973,387.285614 1274.938843,387.285614 1333.202759,387.285614 
	C1333.202759,374.534637 1333.202759,362.134064 1333.202759,349.113708 
	C1293.066284,349.113708 1253.287354,349.113708 1212.513672,349.111908 
M333.607452,212.886078 
	C343.492371,222.878540 355.285950,228.680588 369.475128,229.222961 
	C405.188324,230.588074 431.786591,200.060867 424.414276,166.168732 
	C419.716553,144.572113 402.214447,127.756523 381.412231,124.853378 
	C357.391754,121.501091 336.265778,131.872360 325.197632,152.450531 
	C314.932159,171.536377 318.086395,195.359711 333.607452,212.886078 
M231.634689,142.567413 
	C227.999023,142.955063 224.274597,142.964005 220.742142,143.791992 
	C198.260925,149.061264 181.380722,168.439148 179.837112,190.488510 
	C178.131302,214.854843 191.508423,235.920074 214.182709,244.573212 
	C249.423737,258.022156 287.237427,230.485703 285.678070,192.819855 
	C284.521729,164.888611 260.067902,141.650360 231.634689,142.567413 
z"/>
<path fill="#1A5AA5" opacity="1.000000" stroke="none" 
	d="
M102.989365,353.544342 
	C102.745171,352.984192 102.500984,352.424042 102.480133,351.253967 
	C104.255356,346.720459 108.344284,348.358765 110.978149,346.840881 
	C112.042511,346.227539 113.009605,345.342377 113.767395,344.381042 
	C113.932487,344.171600 112.925690,342.500214 112.609268,342.545898 
	C111.457802,342.712097 110.209251,343.107819 109.288841,343.802979 
	C106.572273,345.854736 103.992836,347.189789 101.104523,343.830475 
	C101.957672,342.452087 102.719063,341.221954 103.054520,340.679993 
	C101.963219,338.620697 101.080086,336.954224 100.196960,335.287750 
	C101.495338,334.951752 102.820663,334.262207 104.086090,334.358673 
	C106.243065,334.523071 108.821999,336.120392 110.366692,335.364471 
	C111.873665,334.627014 112.307564,331.696808 113.606285,328.873291 
	C114.842751,332.978241 115.714745,336.722778 117.149536,340.237579 
	C117.762726,341.739685 119.549446,342.762756 120.802917,344.003479 
	C121.000809,344.278534 121.198692,344.553558 121.206032,345.430664 
	C119.802879,348.031250 120.262665,349.080902 122.702896,349.006958 
	C123.005501,349.544861 123.308105,350.082794 123.397469,351.290100 
	C123.720680,352.639709 124.257149,353.319885 124.793617,354.000092 
	C125.627434,355.888184 126.461250,357.776276 127.149498,360.362671 
	C125.569405,363.529449 126.838951,364.090332 129.062073,363.978546 
	C136.342468,375.852966 143.599152,387.742096 150.930389,399.585052 
	C151.958832,401.246368 153.352676,402.681519 155.762070,404.026520 
	C155.762070,400.886597 155.806625,397.745911 155.754761,394.606812 
	C155.449707,376.143005 154.083282,357.626373 155.025223,339.227417 
	C156.815735,304.252625 182.466278,277.141388 217.244675,271.942841 
	C232.861420,269.608490 248.360260,269.759766 263.753021,274.162689 
	C292.415588,282.361328 309.656769,302.289490 312.837433,332.335510 
	C313.670746,340.207367 313.582306,348.304016 312.786407,356.183258 
	C312.070679,363.269318 306.966095,367.873077 301.065491,368.785217 
	C294.974304,369.726807 290.049652,366.925201 286.497742,359.795776 
	C281.978882,350.725464 278.135376,341.308838 273.398499,332.360321 
	C269.938324,325.823669 265.090790,320.250427 257.495270,318.059845 
	C237.828796,312.388000 219.952621,328.567596 224.612442,348.409119 
	C226.607452,356.903900 229.962753,365.228302 233.759247,373.120605 
	C242.339539,390.957520 251.484909,408.526276 260.621979,426.088837 
	C262.675995,430.036896 265.361389,433.746094 268.242157,437.154480 
	C273.257263,443.088135 277.690002,443.210968 282.851044,437.451569 
	C288.847260,430.760071 294.541077,423.790466 300.216431,416.819702 
	C368.976379,332.365112 437.708527,247.887878 506.450134,163.418320 
	C506.764648,163.031784 507.110352,162.670624 508.179810,162.152283 
	C514.094604,162.772568 519.296204,163.402267 524.438965,164.350571 
	C527.992798,165.005905 531.447266,166.182266 534.979736,166.976578 
	C538.284424,167.719650 538.614868,169.279129 536.754578,171.883957 
	C536.220154,172.632370 536.172241,173.728256 535.901245,174.664810 
	C535.894714,175.837173 535.888184,177.009552 535.657471,178.797089 
	C535.896606,179.942444 536.359924,180.472626 536.823303,181.002792 
	C536.954041,181.416489 537.084778,181.830185 536.922180,182.785461 
	C537.095703,185.864731 537.380798,188.458817 538.140503,190.905563 
	C538.366882,191.634674 539.923584,191.950699 540.870789,192.455994 
	C541.130676,192.682770 541.390564,192.909546 541.319946,193.589737 
	C539.987671,195.027588 538.753601,195.867615 538.033020,197.026825 
	C536.571899,199.377151 535.005371,201.806992 534.369568,204.419952 
	C534.216980,205.047211 537.435303,206.778183 539.296448,207.511597 
	C540.524048,207.995346 542.096741,207.603119 544.068970,207.603119 
	C544.068970,209.166611 544.118408,210.691055 543.989929,212.200348 
	C543.977478,212.346054 542.825684,212.576950 542.262756,212.465469 
	C536.565125,211.337128 536.568604,211.319427 536.352173,217.993210 
	C533.759155,217.993210 531.142639,217.993210 528.360596,217.675415 
	C528.175232,216.888474 528.155518,216.419342 528.369385,215.739395 
	C528.072388,214.685089 527.541870,213.841614 526.878967,212.693878 
	C526.710754,211.521759 526.674805,210.653900 526.745483,209.336136 
	C526.884094,206.467789 527.901306,203.582291 523.814148,202.729187 
	C520.530457,196.181732 520.455322,196.127594 516.282776,201.916260 
	C500.635223,223.624329 484.886993,245.262131 469.456329,267.123749 
	C426.221893,328.376862 383.143799,389.740326 339.961700,451.030396 
	C331.868805,462.516937 323.579742,473.865234 315.164825,485.578522 
	C316.283295,485.711151 317.361420,485.927490 318.444275,485.954376 
	C341.285400,486.521423 363.619568,483.263519 385.355774,476.371002 
	C395.126740,473.272705 404.605164,469.251801 414.632812,465.736359 
	C417.699615,464.239716 420.349945,462.656250 423.183228,460.943146 
	C423.614868,460.621887 423.895966,460.534485 424.668152,460.691406 
	C427.542053,460.683533 429.957275,460.535583 432.371979,460.387695 
	C432.521851,465.162140 433.426666,465.720581 437.500122,464.061737 
	C438.775208,463.542511 440.336060,463.761780 441.667328,463.334808 
	C443.470917,462.756409 445.330383,462.106293 446.882477,461.064636 
	C448.209534,460.173950 449.135681,458.686768 450.241913,457.465942 
	C451.131226,456.484497 452.024719,455.506805 452.916351,454.527435 
	C451.692108,453.680939 450.558472,452.330994 449.225098,452.091003 
	C446.297058,451.563995 444.599243,450.416779 445.179199,446.991455 
	C445.997498,446.423920 446.639984,446.076050 447.686066,445.778900 
	C448.693604,445.133453 449.297546,444.437286 450.005188,443.473694 
	C450.749298,442.829987 451.389679,442.453735 452.233032,442.299377 
	C452.911133,441.887543 453.386292,441.253754 454.010010,440.340088 
	C455.341461,439.171570 456.524353,438.282928 457.791565,437.775787 
	C458.499146,439.482605 459.122406,440.807983 459.575134,441.770813 
	C458.548798,444.082886 457.643524,446.122162 456.738251,448.161438 
	C459.071045,448.592224 460.586060,448.492249 461.378357,447.683899 
	C466.536682,442.421295 472.106720,437.958679 479.476593,436.092377 
	C480.494995,435.834473 481.524048,434.036224 481.725677,432.815277 
	C481.823792,432.221161 480.131897,430.933411 479.059540,430.626678 
	C476.809021,429.983002 474.432343,429.780396 471.429779,429.284882 
	C474.623688,425.725464 477.211029,422.842041 480.173096,419.541016 
	C481.686554,425.419739 483.083649,426.133301 487.646332,424.133789 
	C489.002716,423.539398 490.193146,422.555939 491.561066,422.000519 
	C493.712402,421.126892 495.949738,420.464935 498.544037,419.579041 
	C498.300171,422.427490 498.147766,424.207672 497.995361,425.987823 
	C497.995361,425.987823 498.000000,426.000000 497.655365,426.032257 
	C496.502838,427.254181 495.694916,428.443817 494.887024,429.633484 
	C494.887024,429.633484 494.904755,429.883911 494.411163,429.921143 
	C490.391815,429.758606 489.824799,431.995819 489.936401,434.791992 
	C489.726349,435.104736 489.516296,435.417480 488.657471,435.851135 
	C483.755157,436.211700 481.573059,438.322052 481.918823,442.715332 
	C451.352356,471.909760 415.497528,491.272430 374.184082,500.295990 
	C305.178772,515.367920 241.755508,502.440369 184.343231,461.359802 
	C156.068054,441.127930 133.509155,415.581757 116.962677,384.252960 
	C116.759056,383.417450 116.576790,383.203613 116.321793,383.051758 
	C115.596962,381.760620 114.872131,380.469482 114.038239,378.816711 
	C113.929169,378.455078 113.958237,378.427856 113.958237,378.427856 
	C113.786873,378.128632 113.615509,377.829407 113.228096,376.829071 
	C112.783493,375.773376 112.554932,375.418762 112.326370,375.064178 
	C110.931511,372.189850 109.536652,369.315491 108.047859,365.986267 
	C107.953918,365.531372 107.757179,365.203918 107.757172,365.203918 
	C106.574127,362.472168 105.391075,359.740448 104.103455,356.484100 
	C103.961426,355.695740 103.870750,355.451538 103.726845,355.226868 
	C103.567253,354.951904 103.407661,354.676971 103.120255,353.949371 
	C102.992447,353.496674 102.989365,353.544342 102.989365,353.544342 
z"/>
<path fill="#1C5BA5" opacity="1.000000" stroke="none" 
	d="
M1795.992676,379.777222 
	C1782.485718,387.143005 1767.849854,390.598328 1752.704712,392.334045 
	C1723.063232,395.731110 1694.351440,392.308014 1667.752075,378.411011 
	C1633.198242,360.358276 1611.150391,332.099213 1601.645996,294.043762 
	C1594.440430,265.193054 1595.088379,236.619873 1606.388062,209.224121 
	C1625.350586,163.250259 1659.306885,134.626511 1708.879272,126.108681 
	C1729.559326,122.555290 1750.433350,122.590050 1770.862793,127.935860 
	C1811.898926,138.673813 1841.888184,163.092926 1860.212891,201.551163 
	C1870.303711,222.729324 1872.894043,245.147324 1871.430786,268.263580 
	C1870.170288,288.174438 1864.610596,306.861237 1854.670410,324.084381 
	C1850.435669,331.421600 1844.978394,338.053162 1839.432739,344.913086 
	C1837.759888,342.682587 1836.581055,340.781433 1834.163208,343.380432 
	C1831.703125,346.024872 1829.682129,344.755280 1828.976074,342.258209 
	C1827.757935,337.949799 1826.379028,333.361633 1826.705566,329.013824 
	C1827.270020,321.497009 1825.391235,316.803864 1818.473633,313.225525 
	C1817.001953,312.464233 1815.508789,311.744293 1814.036743,310.701965 
	C1814.423340,309.949707 1814.798584,309.500763 1815.530151,309.044067 
	C1820.541626,309.896942 1823.479004,306.511322 1823.276245,300.800079 
	C1821.596924,301.825226 1819.812744,302.914307 1818.049194,303.635651 
	C1829.955078,279.451019 1831.178467,254.449066 1824.262451,229.344666 
	C1811.009521,181.238602 1756.524658,151.624817 1708.567383,165.648422 
	C1663.865234,178.720184 1636.045654,224.924866 1642.025391,273.284332 
	C1647.095459,314.287445 1680.843628,348.543335 1720.632080,353.724884 
	C1744.373535,356.816650 1766.265015,351.626892 1786.668091,339.408936 
	C1789.487305,340.524689 1792.300781,340.944641 1794.761597,342.109619 
	C1797.005615,343.172028 1799.891113,344.680695 1800.591187,346.664307 
	C1801.213745,348.427734 1799.232300,351.114594 1798.388062,353.389404 
	C1797.950317,354.569275 1796.809326,356.000153 1797.144775,356.871490 
	C1799.234619,362.300598 1796.133667,366.022003 1793.591309,369.232758 
	C1794.479614,373.133301 1795.236084,376.455261 1795.992676,379.777222 
z"/>
<path fill="#1C59A3" opacity="1.000000" stroke="none" 
	d="
M948.405579,384.593201 
	C912.289612,369.070221 893.042114,341.608978 889.323608,303.218353 
	C888.251160,292.146210 888.453918,280.930847 888.429932,269.780334 
	C888.335266,225.787964 888.382996,181.795303 888.377869,137.802734 
	C888.377686,135.981873 888.377869,134.161026 888.377869,131.780869 
	C890.383972,131.625763 892.142395,131.381775 893.902161,131.371506 
	C904.400085,131.310211 914.905273,131.515442 925.393372,131.176666 
	C929.821655,131.033646 931.049744,132.378220 931.038940,136.779816 
	C930.912964,188.270721 930.966797,239.762085 931.000671,291.253326 
	C931.009521,304.724091 934.003967,317.427032 941.925537,328.506989 
	C953.948303,345.323334 970.981201,352.937408 991.171021,353.757568 
	C1017.212708,354.815460 1038.703979,346.278229 1052.116089,322.639008 
	C1058.699341,311.035675 1060.149658,298.158447 1060.127686,284.969482 
	C1060.049072,237.977646 1060.160400,190.985458 1060.198853,143.993408 
	C1060.202148,140.022614 1060.199219,136.051819 1060.199219,131.689590 
	C1074.340820,131.689590 1088.052734,131.689590 1102.210327,131.689590 
	C1102.210327,133.436798 1102.210449,134.908630 1102.210327,136.380447 
	C1102.208984,188.371643 1102.510010,240.365280 1102.089966,292.353088 
	C1101.847900,322.323792 1091.581421,348.459045 1068.332520,368.322693 
	C1046.756958,386.756744 1021.008545,393.264954 993.195801,393.037109 
	C977.909241,392.911896 963.063904,390.234406 948.405579,384.593201 
z"/>
<path fill="#1B59A3" opacity="1.000000" stroke="none" 
	d="
M696.893555,352.000000 
	C696.894897,363.970062 696.894897,375.440125 696.894897,387.408600 
	C694.671448,387.513885 692.899597,387.666504 691.127502,387.670319 
	C680.961243,387.692169 670.785461,387.417175 660.632935,387.790222 
	C655.743286,387.969940 654.129211,386.892365 654.146423,381.586273 
	C654.338806,322.255707 654.241333,262.924225 654.222229,203.592987 
	C654.215088,181.427094 654.208557,159.261200 654.201904,137.095306 
	C654.201416,135.470520 654.201843,133.845734 654.201843,131.974548 
	C655.978760,131.787796 657.266968,131.530869 658.554321,131.534866 
	C692.049683,131.638901 725.559875,131.202377 759.035461,132.081009 
	C784.554626,132.750793 807.918884,140.621841 826.558350,159.006973 
	C841.667175,173.909744 848.269836,192.613373 848.801086,213.549973 
	C849.366211,235.818756 843.818237,256.201080 828.390381,272.891846 
	C814.382996,288.045929 796.330627,296.298096 776.312805,299.165741 
	C761.720703,301.256134 746.794739,301.191742 732.004089,301.663208 
	C720.548523,302.028412 709.071960,301.736206 696.892212,301.736206 
	C696.892212,318.653351 696.892212,335.076660 696.893555,352.000000 
M757.219360,263.858429 
	C759.705322,263.624207 762.200867,263.463867 764.675903,263.144592 
	C800.614563,258.508514 818.571716,218.362701 797.460083,189.533127 
	C788.869263,177.801712 776.487854,171.803223 762.397705,171.137955 
	C741.125854,170.133575 719.788208,170.521912 698.478149,170.352280 
	C698.054199,170.348892 697.627014,170.761932 697.160522,171.001663 
	C697.078186,171.709671 696.935669,172.365051 696.935242,173.020523 
	C696.915100,202.007950 696.968994,230.995667 696.826416,259.982422 
	C696.806885,263.955597 698.762695,264.132355 701.800049,264.110474 
	C719.958069,263.979584 738.117065,263.976044 757.219360,263.858429 
z"/>
<path fill="#1C5BA4" opacity="1.000000" stroke="none" 
	d="
M1429.776611,348.415344 
	C1445.322266,353.179047 1460.828491,355.526428 1476.455200,352.155792 
	C1483.430176,350.651306 1490.559448,347.782074 1496.470337,343.819366 
	C1513.541748,332.374542 1517.408447,302.831543 1490.637085,289.206421 
	C1476.375366,281.947937 1460.842285,279.067169 1445.645752,274.864441 
	C1431.264893,270.887238 1416.662231,267.084564 1403.016846,261.208679 
	C1376.908203,249.966003 1365.302612,228.728012 1365.880859,200.710205 
	C1366.577881,166.928589 1387.181396,139.296906 1420.645142,130.360504 
	C1464.501099,118.648911 1505.432495,126.159897 1542.263794,153.401779 
	C1543.054688,153.986801 1543.752686,154.697556 1544.954102,155.754456 
	C1537.517822,166.559891 1530.136475,177.285370 1523.023804,187.620544 
	C1513.612549,182.576889 1504.971558,177.267365 1495.791016,173.165497 
	C1475.810791,164.238373 1454.979858,160.906189 1433.517944,167.032379 
	C1414.743530,172.391495 1404.834229,189.603226 1409.836426,207.064896 
	C1412.547729,216.529877 1419.285645,222.595352 1427.953369,225.721405 
	C1440.428955,230.220825 1453.391113,233.353668 1466.067749,237.318146 
	C1482.228882,242.372299 1499.052368,246.085831 1514.283203,253.182724 
	C1552.034668,270.773438 1558.718872,310.325684 1548.787598,340.819641 
	C1539.104370,370.551727 1516.039429,384.658813 1486.861816,389.801422 
	C1448.845947,396.501831 1413.018677,390.029388 1380.189941,369.265869 
	C1373.894775,365.284241 1368.184570,360.369537 1362.270386,355.799744 
	C1360.993408,354.813110 1360.001587,353.457336 1358.713013,352.096832 
	C1366.527344,341.644867 1374.164307,331.430176 1382.082153,320.839813 
	C1396.290039,333.126709 1411.742676,342.645966 1429.776611,348.415344 
z"/>
<path fill="#1C59A2" opacity="1.000000" stroke="none" 
	d="
M1213.011108,349.112793 
	C1253.287354,349.113708 1293.066284,349.113708 1333.202759,349.113708 
	C1333.202759,362.134064 1333.202759,374.534637 1333.202759,387.285614 
	C1274.938843,387.285614 1216.896973,387.285614 1158.492920,387.285614 
	C1158.492920,302.240509 1158.492920,217.341553 1158.492920,132.141159 
	C1159.080688,131.944534 1159.822388,131.484299 1160.567627,131.478745 
	C1172.729980,131.387909 1184.894287,131.449814 1197.054688,131.255035 
	C1201.141357,131.189575 1200.526733,133.779541 1200.527832,136.255310 
	C1200.541992,169.080154 1200.571899,201.904999 1200.579224,234.729843 
	C1200.587280,271.220398 1200.572876,307.710968 1200.584473,344.201538 
	C1200.584839,345.653992 1200.750610,347.106384 1200.873169,349.111908 
	C1204.940063,349.111908 1208.726929,349.111908 1213.011108,349.112793 
z"/>
<path fill="#1D5AA4" opacity="1.000000" stroke="none" 
	d="
M120.821678,343.618469 
	C119.549446,342.762756 117.762726,341.739685 117.149536,340.237579 
	C115.714745,336.722778 114.842751,332.978241 113.606285,328.873291 
	C112.307564,331.696808 111.873665,334.627014 110.366692,335.364471 
	C108.821999,336.120392 106.243065,334.523071 104.086090,334.358673 
	C102.820663,334.262207 101.495338,334.951752 100.196960,335.287750 
	C101.080086,336.954224 101.963219,338.620697 103.054520,340.679993 
	C102.719063,341.221954 101.957672,342.452087 101.104523,343.830475 
	C103.992836,347.189789 106.572273,345.854736 109.288841,343.802979 
	C110.209251,343.107819 111.457802,342.712097 112.609268,342.545898 
	C112.925690,342.500214 113.932487,344.171600 113.767395,344.381042 
	C113.009605,345.342377 112.042511,346.227539 110.978149,346.840881 
	C108.344284,348.358765 104.255356,346.720459 102.420433,350.798096 
	C100.575485,346.458862 98.494263,342.071869 97.547905,337.452423 
	C94.566948,322.901489 90.558067,308.364899 89.529129,293.642273 
	C83.074295,201.283142 118.887657,128.546829 194.853012,76.536644 
	C241.537857,44.573551 294.371368,33.462147 350.501343,40.317913 
	C402.232727,46.636429 446.852661,68.610100 484.706970,104.353569 
	C490.649963,109.965195 490.259247,116.874092 484.027008,121.199379 
	C479.501587,124.340080 474.707001,123.787910 470.156097,119.281685 
	C456.826416,106.083000 441.957886,94.933853 425.581757,85.831078 
	C390.688873,66.435654 353.333618,57.814026 313.374786,59.334084 
	C272.983337,60.870594 236.165436,72.950058 202.928711,95.572006 
	C161.938843,123.470985 133.758560,161.228271 118.616196,208.533585 
	C108.805573,239.182358 107.191566,270.438354 110.831154,302.327148 
	C112.451607,316.524994 116.822342,329.770142 120.821678,343.618469 
z"/>
<path fill="#1859A4" opacity="1.000000" stroke="none" 
	d="
M333.368835,212.624939 
	C318.086395,195.359711 314.932159,171.536377 325.197632,152.450531 
	C336.265778,131.872360 357.391754,121.501091 381.412231,124.853378 
	C402.214447,127.756523 419.716553,144.572113 424.414276,166.168732 
	C431.786591,200.060867 405.188324,230.588074 369.475128,229.222961 
	C355.285950,228.680588 343.492371,222.878540 333.368835,212.624939 
z"/>
<path fill="#1859A5" opacity="1.000000" stroke="none" 
	d="
M232.070038,142.564957 
	C260.067902,141.650360 284.521729,164.888611 285.678070,192.819855 
	C287.237427,230.485703 249.423737,258.022156 214.182709,244.573212 
	C191.508423,235.920074 178.131302,214.854843 179.837112,190.488510 
	C181.380722,168.439148 198.260925,149.061264 220.742142,143.791992 
	C224.274597,142.964005 227.999023,142.955063 232.070038,142.564957 
z"/>
<path fill="#1E5AA4" opacity="1.000000" stroke="none" 
	d="
M498.316284,425.902283 
	C498.147766,424.207672 498.300171,422.427490 498.544037,419.579041 
	C495.949738,420.464935 493.712402,421.126892 491.561066,422.000519 
	C490.193146,422.555939 489.002716,423.539398 487.646332,424.133789 
	C483.083649,426.133301 481.686554,425.419739 480.173096,419.541016 
	C477.211029,422.842041 474.623688,425.725464 471.429779,429.284882 
	C474.432343,429.780396 476.809021,429.983002 479.059540,430.626678 
	C480.131897,430.933411 481.823792,432.221161 481.725677,432.815277 
	C481.524048,434.036224 480.494995,435.834473 479.476593,436.092377 
	C472.106720,437.958679 466.536682,442.421295 461.378357,447.683899 
	C460.586060,448.492249 459.071045,448.592224 456.738251,448.161438 
	C457.643524,446.122162 458.548798,444.082886 459.575134,441.770813 
	C459.122406,440.807983 458.499146,439.482605 457.944580,437.502014 
	C513.697693,388.685242 539.407471,327.892334 534.267883,254.410995 
	C533.413635,242.197617 530.492310,230.128815 528.526184,217.993210 
	C531.142639,217.993210 533.759155,217.993210 536.352173,217.993210 
	C536.568604,211.319427 536.565125,211.337128 542.262756,212.465469 
	C542.825684,212.576950 543.977478,212.346054 543.989929,212.200348 
	C544.118408,210.691055 544.068970,209.166611 544.068970,207.603119 
	C542.096741,207.603119 540.524048,207.995346 539.296448,207.511597 
	C537.435303,206.778183 534.216980,205.047211 534.369568,204.419952 
	C535.005371,201.806992 536.571899,199.377151 538.033020,197.026825 
	C538.753601,195.867615 539.987671,195.027588 541.349854,193.855026 
	C553.927185,225.473190 557.638855,258.468933 554.832031,292.219604 
	C550.625427,342.800995 531.782837,387.347290 498.316284,425.902283 
z"/>
<path fill="#1E5CA9" opacity="1.000000" stroke="none" 
	d="
M1814.025513,311.005310 
	C1815.508789,311.744293 1817.001953,312.464233 1818.473633,313.225525 
	C1825.391235,316.803864 1827.270020,321.497009 1826.705566,329.013824 
	C1826.379028,333.361633 1827.757935,337.949799 1828.976074,342.258209 
	C1829.682129,344.755280 1831.703125,346.024872 1834.163208,343.380432 
	C1836.581055,340.781433 1837.759888,342.682587 1839.109619,345.012329 
	C1834.115234,351.022278 1829.442871,357.659821 1823.327881,362.459106 
	C1815.030273,368.971344 1805.628296,374.076263 1796.346313,379.781006 
	C1795.236084,376.455261 1794.479614,373.133301 1793.591309,369.232758 
	C1796.133667,366.022003 1799.234619,362.300598 1797.144775,356.871490 
	C1796.809326,356.000153 1797.950317,354.569275 1798.388062,353.389404 
	C1799.232300,351.114594 1801.213745,348.427734 1800.591187,346.664307 
	C1799.891113,344.680695 1797.005615,343.172028 1794.761597,342.109619 
	C1792.300781,340.944641 1789.487305,340.524689 1786.847900,339.160950 
	C1797.764404,331.181305 1806.400635,321.591980 1814.025513,311.005310 
z"/>
<path fill="#1A5AA5" opacity="1.000000" stroke="none" 
	d="
M518.721069,148.862320 
	C519.306213,148.008987 519.891357,147.155640 521.087158,146.103683 
	C522.087219,145.207214 522.476562,144.509384 522.865906,143.811539 
	C522.865906,143.811539 522.912109,143.908310 523.220459,143.889191 
	C524.023254,142.926956 524.517639,141.983841 525.012024,141.040741 
	C525.176270,140.752960 525.340576,140.465164 526.069702,140.222412 
	C534.857849,138.771851 541.772644,143.930450 549.522156,145.295578 
	C550.156982,147.641708 550.923706,150.475250 551.690430,153.308807 
	C551.690430,153.308807 551.640930,153.733734 551.115845,153.973572 
	C550.047302,155.446075 549.503845,156.678772 548.960327,157.911469 
	C548.960327,157.911453 548.995850,157.974777 548.626953,158.033447 
	C547.515381,159.408676 546.772766,160.725235 546.030151,162.041779 
	C546.030151,162.041794 545.998047,162.002518 545.660583,162.038544 
	C540.815430,162.370880 536.281433,163.068542 531.812317,162.775879 
	C529.890076,162.649994 526.463928,160.378723 526.527649,159.238998 
	C526.861938,153.257812 522.351318,151.502258 518.721069,148.862320 
z"/>
<path fill="#1E5AA4" opacity="1.000000" stroke="none" 
	d="
M518.418091,148.977356 
	C522.351318,151.502258 526.861938,153.257812 526.527649,159.238998 
	C526.463928,160.378723 529.890076,162.649994 531.812317,162.775879 
	C536.281433,163.068542 540.815430,162.370880 545.682373,162.051117 
	C542.863342,166.170258 539.685120,170.312836 536.204102,174.560104 
	C536.172241,173.728256 536.220154,172.632370 536.754578,171.883957 
	C538.614868,169.279129 538.284424,167.719650 534.979736,166.976578 
	C531.447266,166.182266 527.992798,165.005905 524.438965,164.350571 
	C519.296204,163.402267 514.094604,162.772568 508.484222,162.010620 
	C511.405212,157.707016 514.760132,153.399704 518.418091,148.977356 
z"/>
<path fill="#1E5AA4" opacity="1.000000" stroke="none" 
	d="
M551.936890,153.077087 
	C550.923706,150.475250 550.156982,147.641708 549.522156,145.295578 
	C541.772644,143.930450 534.857849,138.771851 526.307434,140.127930 
	C530.862976,132.869171 538.533936,130.348770 545.270874,133.650238 
	C552.125305,137.009277 554.797485,144.429642 551.936890,153.077087 
z"/>
<path fill="#1E5AA4" opacity="1.000000" stroke="none" 
	d="
M540.657593,192.128418 
	C539.923584,191.950699 538.366882,191.634674 538.140503,190.905563 
	C537.380798,188.458817 537.095703,185.864731 536.916382,183.117035 
	C538.284058,185.871628 539.364197,188.836227 540.657593,192.128418 
z"/>
<path fill="#1E5AA4" opacity="1.000000" stroke="none" 
	d="
M482.236694,442.648865 
	C481.573059,438.322052 483.755157,436.211700 488.385254,435.950562 
	C486.692749,438.146851 484.623657,440.364624 482.236694,442.648865 
z"/>
<path fill="#1E5AA4" opacity="1.000000" stroke="none" 
	d="
M490.243713,434.710632 
	C489.824799,431.995819 490.391815,429.758606 494.285675,429.924561 
	C493.286224,431.470276 491.918640,433.049774 490.243713,434.710632 
z"/>
<path fill="#1D5AA4" opacity="1.000000" stroke="none" 
	d="
M122.717316,348.667969 
	C120.262665,349.080902 119.802879,348.031250 121.157150,345.688110 
	C121.776466,346.338654 122.254105,347.333832 122.717316,348.667969 
z"/>
<path fill="#1E5AA4" opacity="1.000000" stroke="none" 
	d="
M495.177124,429.535889 
	C495.694916,428.443817 496.502838,427.254181 497.649200,426.030029 
	C497.147491,427.143097 496.307343,428.290680 495.177124,429.535889 
z"/>
<path fill="#1D5AA4" opacity="1.000000" stroke="none" 
	d="
M129.033569,363.629822 
	C126.838951,364.090332 125.569405,363.529449 127.150665,360.703247 
	C127.866623,361.324005 128.435837,362.302582 129.033569,363.629822 
z"/>
<path fill="#1E5AA4" opacity="1.000000" stroke="none" 
	d="
M546.328796,161.914505 
	C546.772766,160.725235 547.515381,159.408676 548.590698,158.030914 
	C548.158081,159.242203 547.392761,160.514725 546.328796,161.914505 
z"/>
<path fill="#1E5AA4" opacity="1.000000" stroke="none" 
	d="
M549.263062,157.760117 
	C549.503845,156.678772 550.047302,155.446075 550.925049,154.070190 
	C550.694763,155.154251 550.130310,156.381516 549.263062,157.760117 
z"/>
<path fill="#1E5AA4" opacity="1.000000" stroke="none" 
	d="
M524.727661,141.168930 
	C524.517639,141.983841 524.023254,142.926956 523.169128,143.873810 
	C523.354004,143.017410 523.898621,142.157272 524.727661,141.168930 
z"/>
<path fill="#1D5AA4" opacity="1.000000" stroke="none" 
	d="
M124.799942,353.673401 
	C124.257149,353.319885 123.720680,352.639709 123.286713,351.588989 
	C123.861557,351.927887 124.333916,352.637299 124.799942,353.673401 
z"/>
<path fill="#1E5AA4" opacity="1.000000" stroke="none" 
	d="
M522.588135,143.930756 
	C522.476562,144.509384 522.087219,145.207214 521.368164,145.958115 
	C521.462402,145.357422 521.886353,144.703690 522.588135,143.930756 
z"/>
<path fill="#1E5AA4" opacity="1.000000" stroke="none" 
	d="
M536.845093,180.715088 
	C536.359924,180.472626 535.896606,179.942444 535.632690,179.238144 
	C536.177063,179.518478 536.521912,179.972931 536.845093,180.715088 
z"/>
<path fill="#1D5AA4" opacity="1.000000" stroke="none" 
	d="
M112.278336,375.301941 
	C112.554932,375.418762 112.783493,375.773376 113.061264,376.339508 
	C112.817085,376.213928 112.523697,375.876831 112.278336,375.301941 
z"/>
<path fill="#1D5AA4" opacity="1.000000" stroke="none" 
	d="
M103.626114,355.371582 
	C103.870750,355.451538 103.961426,355.695740 104.020035,356.085510 
	C103.869263,355.979767 103.697319,355.748047 103.626114,355.371582 
z"/>
<path fill="#1D5AA4" opacity="1.000000" stroke="none" 
	d="
M113.883804,378.360779 
	C113.958237,378.427856 113.929169,378.455078 113.939423,378.457581 
	C113.949684,378.460052 113.809380,378.293671 113.883804,378.360779 
z"/>
<path fill="#1D5AA4" opacity="1.000000" stroke="none" 
	d="
M116.298195,383.287537 
	C116.576790,383.203613 116.759056,383.417450 116.916397,383.901825 
	C116.612915,384.057312 116.383057,383.861633 116.298195,383.287537 
z"/>
<path fill="#1D5AA4" opacity="1.000000" stroke="none" 
	d="
M107.664368,365.322632 
	C107.757179,365.203918 107.953918,365.531372 108.000031,365.615540 
	C107.800682,365.773193 107.642487,365.687042 107.664368,365.322632 
z"/>
<path fill="#1D5AA4" opacity="1.000000" stroke="none" 
	d="
M102.974777,353.445190 
	C102.989365,353.544342 102.992447,353.496674 103.012695,353.484802 
	C103.032951,353.472961 102.960190,353.346008 102.974777,353.445190 
z"/>
<path fill="#FDFEFE" opacity="1.000000" stroke="none" 
	d="
M528.360596,217.675415 
	C530.492310,230.128815 533.413635,242.197617 534.267883,254.410995 
	C539.407471,327.892334 513.697693,388.685242 457.860229,437.120544 
	C456.524353,438.282928 455.341461,439.171570 453.704285,440.408508 
	C452.843323,441.196991 452.436676,441.637207 452.030060,442.077454 
	C451.389679,442.453735 450.749298,442.829987 449.674072,443.551514 
	C448.587006,444.507233 447.934723,445.117706 447.282471,445.728210 
	C446.639984,446.076050 445.997498,446.423920 444.848694,447.060242 
	C437.631409,451.749573 430.920441,456.150452 424.209442,460.551331 
	C423.895966,460.534485 423.614868,460.621887 422.823364,460.935181 
	C419.592438,462.587738 416.904388,464.118652 414.216339,465.649536 
	C404.605164,469.251801 395.126740,473.272705 385.355774,476.371002 
	C363.619568,483.263519 341.285400,486.521423 318.444275,485.954376 
	C317.361420,485.927490 316.283295,485.711151 315.164825,485.578522 
	C323.579742,473.865234 331.868805,462.516937 339.961700,451.030396 
	C383.143799,389.740326 426.221893,328.376862 469.456329,267.123749 
	C484.886993,245.262131 500.635223,223.624329 516.282776,201.916260 
	C520.455322,196.127594 520.530457,196.181732 523.769714,203.107147 
	C524.861328,205.765579 525.750122,207.775803 526.638916,209.786041 
	C526.674805,210.653900 526.710754,211.521759 526.837769,213.021210 
	C527.331177,214.418610 527.733459,215.184418 528.135803,215.950211 
	C528.155518,216.419342 528.175232,216.888474 528.360596,217.675415 
z"/>
<path fill="#1E5AA4" opacity="1.000000" stroke="none" 
	d="
M424.668152,460.691406 
	C430.920441,456.150452 437.631409,451.749573 444.672913,447.279877 
	C444.599243,450.416779 446.297058,451.563995 449.225098,452.091003 
	C450.558472,452.330994 451.692108,453.680939 452.916351,454.527435 
	C452.024719,455.506805 451.131226,456.484497 450.241913,457.465942 
	C449.135681,458.686768 448.209534,460.173950 446.882477,461.064636 
	C445.330383,462.106293 443.470917,462.756409 441.667328,463.334808 
	C440.336060,463.761780 438.775208,463.542511 437.500122,464.061737 
	C433.426666,465.720581 432.521851,465.162140 432.371979,460.387695 
	C429.957275,460.535583 427.542053,460.683533 424.668152,460.691406 
z"/>
<path fill="#1E5AA4" opacity="1.000000" stroke="none" 
	d="
M414.632812,465.736389 
	C416.904388,464.118652 419.592438,462.587738 422.640381,461.064819 
	C420.349945,462.656250 417.699615,464.239716 414.632812,465.736389 
z"/>
<path fill="#1E5AA4" opacity="1.000000" stroke="none" 
	d="
M526.745483,209.336121 
	C525.750122,207.775803 524.861328,205.765579 524.016907,203.377396 
	C527.901306,203.582291 526.884094,206.467789 526.745483,209.336121 
z"/>
<path fill="#1E5AA4" opacity="1.000000" stroke="none" 
	d="
M528.369385,215.739395 
	C527.733459,215.184418 527.331177,214.418610 526.970093,213.325470 
	C527.541870,213.841614 528.072388,214.685089 528.369385,215.739395 
z"/>
<path fill="#205DA8" opacity="1.000000" stroke="none" 
	d="
M452.233032,442.299377 
	C452.436676,441.637207 452.843323,441.196991 453.555725,440.688354 
	C453.386292,441.253754 452.911133,441.887543 452.233032,442.299377 
z"/>
<path fill="#205DA8" opacity="1.000000" stroke="none" 
	d="
M447.686066,445.778870 
	C447.934723,445.117706 448.587006,444.507233 449.570374,443.818970 
	C449.297546,444.437286 448.693604,445.133453 447.686066,445.778870 
z"/>
<path fill="#FDFEFE" opacity="1.000000" stroke="none" 
	d="
M1814.036743,310.702026 
	C1806.400635,321.591980 1797.764404,331.181305 1786.688477,338.789856 
	C1766.265015,351.626892 1744.373535,356.816650 1720.632080,353.724884 
	C1680.843628,348.543335 1647.095459,314.287445 1642.025391,273.284332 
	C1636.045654,224.924866 1663.865234,178.720184 1708.567383,165.648422 
	C1756.524658,151.624817 1811.009521,181.238602 1824.262451,229.344666 
	C1831.178467,254.449066 1829.955078,279.451019 1817.758301,303.793579 
	C1816.689209,305.896790 1815.931519,307.474304 1815.173828,309.051819 
	C1814.798584,309.500763 1814.423340,309.949707 1814.036743,310.702026 
z"/>
<path fill="#1E5CA9" opacity="1.000000" stroke="none" 
	d="
M1815.530151,309.044067 
	C1815.931519,307.474304 1816.689209,305.896790 1817.737793,304.161377 
	C1819.812744,302.914307 1821.596924,301.825226 1823.276245,300.800079 
	C1823.479004,306.511322 1820.541626,309.896942 1815.530151,309.044067 
z"/>
<path fill="#FCFDFE" opacity="1.000000" stroke="none" 
	d="
M756.747559,263.894104 
	C738.117065,263.976044 719.958069,263.979584 701.800049,264.110474 
	C698.762695,264.132355 696.806885,263.955597 696.826416,259.982422 
	C696.968994,230.995667 696.915100,202.007950 696.935242,173.020523 
	C696.935669,172.365051 697.078186,171.709671 697.160522,171.001663 
	C697.627014,170.761932 698.054199,170.348892 698.478149,170.352280 
	C719.788208,170.521912 741.125854,170.133575 762.397705,171.137955 
	C776.487854,171.803223 788.869263,177.801712 797.460083,189.533127 
	C818.571716,218.362701 800.614563,258.508514 764.675903,263.144592 
	C762.200867,263.463867 759.705322,263.624207 756.747559,263.894104 
z"/>
</svg>